<svg xmlns="http://www.w3.org/2000/svg" id="a" width="816" height="223.7" viewBox="0 0 816 223.7"><path d="M1.5,179.6H19c1,4.6,3.3,7.6,7.1,9.1s9.3,2.2,16.6,2.2,13.2-.8,16.8-2.5c3.6-1.6,5.4-4.3,5.4-8,0-4.9-3.2-7.8-9.7-8.7s-13.6-1.6-21.3-2.3c-7.3-.6-14.5-2.3-21.3-5-6.5-2.6-9.7-8.1-9.7-16.5s3.4-13.8,10.2-17.5c6.8-3.6,16.2-5.5,28.4-5.4,12.1,0,21.4,1.8,27.9,5.3,6.6,3.5,10.2,9.3,11,17.4h-17.4c-.3-3.8-2.9-7-6.5-8.2-3.8-1.4-8.8-2.1-15-2.1-7.2,0-12.7,.7-16.3,2.2-3.4,1.2-5.7,4.5-5.4,8.1,0,4.7,3.2,7.4,9.7,8.2,6.5,.8,13.6,1.6,21.3,2.3,7.3,.6,14.5,2.3,21.3,5,6.5,2.6,9.7,8,9.7,16.2s-3.2,14.4-9.6,18.2-16.2,5.6-29.5,5.6-23.5-1.8-30-5.5-10.2-9.7-11.2-18.1Z" style="fill:#fff;"></path><path d="M94.7,126.6h17.2v75.3h-17.2V126.6Z" style="fill:#fff;"></path><path d="M165.7,191.6l-24-52.4v62.6h-15.5V126.5h25.9l23.3,50.9,23.2-50.9h26v75.3h-17.1v-62.6l-24,52.4h-17.8Z" style="fill:#fff;"></path><path d="M296.1,190.4l-25.5-56.5v68h-8.4V126.6h13.9l25,55.6,25.3-55.6h13.7v75.3h-9.2v-68.1l-25.7,56.6h-9.1Z" style="fill:#fff;"></path><path d="M349.5,187.4c0-4.9,1.6-8.7,4.7-11.4s8.7-4.3,16.8-4.8l20.1-1.3v-1.6c0-5.5-1.3-9.5-3.8-11.9s-6.5-3.6-11.9-3.6c-3.5-.1-6.9,.6-10.1,2.1-2.7,1.4-4.4,3.9-5.2,7.6h-8.8c.6-4.8,3.3-9.1,7.4-11.8,4-2.7,9.6-4,16.7-4,8.1,0,14.2,1.7,18.3,5.1,4,3.4,6,8.9,6,16.5v33.5h-8.1v-9.4c-2.1,3.4-5.2,6.1-8.9,7.8-4.3,1.9-8.9,2.9-13.6,2.7-6.7,0-11.6-1.4-14.8-4.1-3.2-2.6-4.8-6.4-4.8-11.4Zm8.8,.5c-.1,2.6,1,5.1,3.1,6.7,2.1,1.6,5.1,2.4,9.2,2.4,2.6,0,5.2-.3,7.7-.9,2.4-.6,4.6-1.6,6.6-3.1,1.9-1.5,3.5-3.4,4.5-5.6,1.2-2.6,1.8-5.5,1.7-8.4v-3.5l-19,1.3c-4.7,.4-8.2,1.3-10.5,2.7-2.2,1.4-3.3,3.7-3.3,6.9v1.5h0Z" style="fill:#fff;"></path><path d="M409,162.6l9.5-5.4v-35h8.6v30.3l9.5-5.3v7.4l-9.5,5.3v41.9h-8.6v-37.2l-9.5,5.4v-7.4Z" style="fill:#fff;"></path><path d="M442.8,174.9c0-10.2,2.4-17.4,7.2-21.7s11.5-6.4,20.1-6.4,15.5,2.1,20.2,6.4,7.1,11.5,7.1,21.7-2.4,17.7-7.1,21.9-11.4,6.3-20.2,6.2c-8.6,0-15.3-2.1-20.1-6.3-4.8-4.2-7.2-11.4-7.2-21.8Zm45.8,3.3v-6.6c0-6.4-1.6-11.1-4.9-14.1s-7.8-4.5-13.7-4.4c-5.9,0-10.4,1.5-13.7,4.5s-4.9,7.7-4.9,14.1v6.8c0,6.3,1.6,11,4.9,14s7.8,4.5,13.7,4.5,10.5-1.5,13.7-4.5,4.9-7.9,4.9-14.3Z" style="fill:#fff;"></path><path d="M506.6,147.9h8.3v8.9c1.9-3.4,4.8-6.1,8.3-7.8,3.8-1.7,8-2.5,12.2-2.4,8.3,0,14.7,2.1,19.1,6.4s6.7,11.5,6.7,21.7-2.2,17.4-6.7,21.7-10.8,6.4-19.1,6.4c-4.1,.1-8.1-.7-11.9-2.2-3.4-1.5-6.3-4-8.2-7.3v30.1h-8.6l-.1-75.5Zm45.7,30.4v-6.9c0-6.6-1.7-11.3-5-14.1s-7.9-4.3-13.6-4.3-10.4,1.4-13.7,4.3c-3.2,2.9-4.9,7.6-4.9,14.1v6.9c0,6.3,1.7,11,5.1,14s7.9,4.5,13.5,4.5,10.3-1.5,13.6-4.6c3.3-3,5-7.7,5-13.9Z" style="fill:#fff;"></path><path d="M570.3,174.9c0-10.2,2.4-17.4,7.2-21.7s11.5-6.4,20.1-6.4,15.5,2.1,20.2,6.4,7.1,11.5,7.1,21.7-2.4,17.7-7.1,21.9c-4.7,4.2-11.4,6.3-20.2,6.2-8.6,0-15.3-2.1-20.1-6.3-4.7-4.2-7.1-11.4-7.2-21.8Zm45.9,3.3v-6.6c0-6.4-1.6-11.1-4.9-14.1s-7.8-4.5-13.7-4.4c-5.9,0-10.4,1.5-13.7,4.5s-4.9,7.7-4.9,14.1v6.8c0,6.3,1.6,11,4.9,14,3.2,3,7.8,4.5,13.7,4.5s10.4-1.5,13.7-4.5c3.2-3.2,4.9-7.9,4.9-14.3Z" style="fill:#fff;"></path><path d="M634.1,122.2h8.6v79.6h-8.6V122.2Z" style="fill:#fff;"></path><path d="M652,185.6h8.8c.3,4.2,1.8,7.2,4.6,8.8,2.8,1.7,6.7,2.5,11.7,2.5s9.1-.8,11.8-2.3c2.6-1.5,4-4,4-7.5,0-4.1-2.1-6.6-6.2-7.5-4.1-.9-8.6-1.7-13.5-2.3-4.7-.6-9.2-1.8-13.5-3.7-4.1-1.8-6.2-5.6-6.2-11.4-.2-4.6,2.1-9.1,6-11.6,4-2.7,9.6-4,16.9-4,6.8,0,12.3,1.3,16.5,3.8s6.4,6.6,6.7,12.1h-8.7c-.3-3.8-1.8-6.4-4.5-7.8-3.1-1.4-6.6-2.1-10-2-4.6,0-8.2,.7-10.7,2.2-2.5,1.4-4,4.1-3.8,7,0,3.9,2.1,6.3,6.2,7.2,4.1,.9,8.6,1.7,13.5,2.3,4.6,.6,9.2,1.8,13.4,3.7,4.1,1.9,6.2,5.7,6.2,11.6s-2.2,9.8-6.6,12.3c-4.4,2.5-10.2,3.8-17.4,3.8-7.8,0-13.9-1.4-18.3-4.3-4.3-2.7-6.6-7-6.9-12.9Z" style="fill:#fff;"></path><path d="M747.1,147.9h9.7l-23.1,26,25.8,27.9h-10.7l-22.3-23.8h-7.5v23.9h-8.6V122.2h8.6v49.1h7.3l20.8-23.4Z" style="fill:#fff;"></path><path d="M765.7,187.4c0-4.9,1.6-8.7,4.7-11.4,3.1-2.7,8.7-4.3,16.8-4.8l20.1-1.3v-1.6c0-5.5-1.3-9.5-3.8-11.9s-6.5-3.6-11.9-3.6c-3.5-.1-6.9,.6-10.1,2.1-2.7,1.4-4.4,3.9-5.2,7.6h-8.8c.6-4.8,3.3-9.1,7.3-11.8s9.6-4,16.7-4c8.2,0,14.2,1.7,18.3,5.1,4,3.4,6.1,8.9,6.1,16.5v33.5h-8.1v-9.4c-2.1,3.4-5.2,6.1-8.9,7.8-4.3,1.9-9,2.9-13.7,2.8-6.7,0-11.6-1.4-14.8-4.1-3-2.7-4.6-6.5-4.7-11.5Zm8.9,.5c-.1,2.6,1,5.1,3.1,6.7,2.1,1.6,5.2,2.4,9.2,2.4,2.6,0,5.2-.3,7.7-.9,2.4-.6,4.6-1.6,6.6-3.1,1.9-1.5,3.5-3.4,4.5-5.6,1.2-2.6,1.8-5.5,1.7-8.4v-3.5l-19,1.3c-4.7,.4-8.2,1.3-10.5,2.7-2.2,1.4-3.3,3.7-3.3,6.9v1.5Z" style="fill:#fff;"></path><path d="M80,0l-.1,.1,62.6,85.2c1.8,2.3,4.5,3.6,7.4,3.6h29L113.6,0h-33.6Z" style="fill:#e52e1a;"></path><path d="M124.2,0l-.1,.1,62.6,85.2c1.8,2.3,4.5,3.6,7.4,3.6h29L157.9,0h-33.7Z" style="fill:#e52e1a;"></path><path d="M69.6,.1l-.1-.1H34.7l-.1,.1h0L0,48.1H29c2.9,0,5.6-1.3,7.4-3.6l15.7-21,46.3,61.8c1.8,2.3,4.5,3.6,7.4,3.6h29L69.6,.1Z" style="fill:#e52e1a;"></path></svg>